<svg xmlns="http://www.w3.org/2000/svg" width="620" height="400" viewBox="0 0 620 400">
  <defs><linearGradient id="bg" x1="0%" y1="0%" x2="100%" y2="100%"><stop offset="0%" stop-color="#3E2723"/><stop offset="50%" stop-color="#4E342E"/><stop offset="100%" stop-color="#5D4037"/></linearGradient></defs>
  <rect width="620" height="400" fill="url(#bg)"/>
  <ellipse cx="186" cy="160" rx="22" ry="14" fill="rgba(188,170,164,0.2)" transform="rotate(-15 186 160)"/><line x1="174" y1="160" x2="198" y2="160" stroke="rgba(139,119,101,0.3)" stroke-width="0.5"/>
  <ellipse cx="310" cy="140" rx="22" ry="14" fill="rgba(188,170,164,0.2)" transform="rotate(10 310 140)"/><line x1="298" y1="140" x2="322" y2="140" stroke="rgba(139,119,101,0.3)" stroke-width="0.5"/>
  <ellipse cx="434" cy="200" rx="22" ry="14" fill="rgba(188,170,164,0.2)" transform="rotate(-25 434 200)"/><line x1="422" y1="200" x2="446" y2="200" stroke="rgba(139,119,101,0.3)" stroke-width="0.5"/>
  <ellipse cx="155" cy="260" rx="22" ry="14" fill="rgba(188,170,164,0.15)" transform="rotate(20 155 260)"/><line x1="143" y1="260" x2="167" y2="260" stroke="rgba(139,119,101,0.2)" stroke-width="0.5"/>
  <ellipse cx="372" cy="280" rx="22" ry="14" fill="rgba(188,170,164,0.15)" transform="rotate(-10 372 280)"/><line x1="360" y1="280" x2="384" y2="280" stroke="rgba(139,119,101,0.2)" stroke-width="0.5"/>
  <ellipse cx="280" cy="220" rx="22" ry="14" fill="rgba(188,170,164,0.18)" transform="rotate(35 280 220)"/><line x1="268" y1="220" x2="292" y2="220" stroke="rgba(139,119,101,0.25)" stroke-width="0.5"/>
  <ellipse cx="496" cy="140" rx="22" ry="14" fill="rgba(188,170,164,0.15)" transform="rotate(-20 496 140)"/><line x1="484" y1="140" x2="508" y2="140" stroke="rgba(139,119,101,0.2)" stroke-width="0.5"/>
  <text x="310" y="200" text-anchor="middle" dominant-baseline="central" font-family="serif" font-size="24" fill="rgba(255,255,255,0.6)" font-weight="600">耶加雪菲</text>
</svg>
