<svg xmlns="http://www.w3.org/2000/svg" width="600" height="360" viewBox="0 0 600 360">
  <defs><linearGradient id="bg" x1="0%" y1="0%" x2="100%" y2="100%"><stop offset="0%" stop-color="#455A64"/><stop offset="50%" stop-color="#546E7A"/><stop offset="100%" stop-color="#607D8B"/></linearGradient></defs>
  <rect width="600" height="360" fill="url(#bg)"/>
  <line x1="90" y1="360" x2="90" y2="120" stroke="rgba(255,255,255,0.14)" stroke-width="3"/>
  <line x1="90" y1="200" x2="65" y2="155" stroke="rgba(255,255,255,0.08)" stroke-width="1.5"/>
  <line x1="90" y1="200" x2="115" y2="155" stroke="rgba(255,255,255,0.08)" stroke-width="1.5"/>
  <line x1="90" y1="150" x2="60" y2="110" stroke="rgba(255,255,255,0.06)" stroke-width="1"/>
  <line x1="90" y1="150" x2="120" y2="100" stroke="rgba(255,255,255,0.06)" stroke-width="1"/>
  <line x1="240" y1="360" x2="240" y2="100" stroke="rgba(255,255,255,0.14)" stroke-width="3"/>
  <line x1="240" y1="180" x2="210" y2="130" stroke="rgba(255,255,255,0.08)" stroke-width="1.5"/>
  <line x1="240" y1="180" x2="270" y2="120" stroke="rgba(255,255,255,0.08)" stroke-width="1.5"/>
  <line x1="240" y1="130" x2="215" y2="85" stroke="rgba(255,255,255,0.06)" stroke-width="1"/>
  <line x1="240" y1="130" x2="265" y2="80" stroke="rgba(255,255,255,0.06)" stroke-width="1"/>
  <line x1="390" y1="360" x2="390" y2="140" stroke="rgba(255,255,255,0.14)" stroke-width="3"/>
  <line x1="390" y1="200" x2="365" y2="160" stroke="rgba(255,255,255,0.08)" stroke-width="1.5"/>
  <line x1="390" y1="200" x2="415" y2="155" stroke="rgba(255,255,255,0.08)" stroke-width="1.5"/>
  <line x1="390" y1="160" x2="370" y2="120" stroke="rgba(255,255,255,0.06)" stroke-width="1"/>
  <line x1="390" y1="160" x2="410" y2="115" stroke="rgba(255,255,255,0.06)" stroke-width="1"/>
  <line x1="510" y1="360" x2="510" y2="160" stroke="rgba(255,255,255,0.14)" stroke-width="3"/>
  <line x1="510" y1="210" x2="490" y2="170" stroke="rgba(255,255,255,0.08)" stroke-width="1.5"/>
  <line x1="510" y1="210" x2="535" y2="168" stroke="rgba(255,255,255,0.08)" stroke-width="1.5"/>
  <text x="300" y="168" text-anchor="middle" dominant-baseline="central" font-family="serif" font-size="36" fill="rgba(255,255,255,0.88)" font-weight="700">冬天的树</text>
  <text x="300" y="205" text-anchor="middle" dominant-baseline="central" font-family="sans-serif" font-size="14" fill="rgba(255,255,255,0.5)">结构之美</text>
</svg>
