<svg xmlns="http://www.w3.org/2000/svg" width="620" height="440" viewBox="0 0 620 440">
  <defs><linearGradient id="bg" x1="0%" y1="0%" x2="100%" y2="100%"><stop offset="0%" stop-color="#546E7A"/><stop offset="50%" stop-color="#607D8B"/><stop offset="100%" stop-color="#78909C"/></linearGradient></defs>
  <rect width="620" height="440" fill="url(#bg)"/>
  <line x1="310" y1="440" x2="310" y2="80" stroke="rgba(255,255,255,0.12)" stroke-width="5"/>
  <line x1="310" y1="320" x2="200" y2="250" stroke="rgba(255,255,255,0.1)" stroke-width="3"/>
  <line x1="310" y1="260" x2="420" y2="180" stroke="rgba(255,255,255,0.1)" stroke-width="3"/>
  <line x1="200" y1="250" x2="150" y2="200" stroke="rgba(255,255,255,0.07)" stroke-width="2"/>
  <line x1="200" y1="250" x2="170" y2="210" stroke="rgba(255,255,255,0.07)" stroke-width="2"/>
  <line x1="420" y1="180" x2="470" y2="130" stroke="rgba(255,255,255,0.07)" stroke-width="2"/>
  <line x1="420" y1="180" x2="450" y2="140" stroke="rgba(255,255,255,0.07)" stroke-width="2"/>
  <line x1="310" y1="180" x2="250" y2="120" stroke="rgba(255,255,255,0.07)" stroke-width="2"/>
  <line x1="310" y1="180" x2="360" y2="110" stroke="rgba(255,255,255,0.07)" stroke-width="2"/>
  <line x1="250" y1="120" x2="220" y2="80" stroke="rgba(255,255,255,0.05)" stroke-width="1"/>
  <line x1="360" y1="110" x2="390" y2="70" stroke="rgba(255,255,255,0.05)" stroke-width="1"/>
  <line x1="310" y1="120" x2="290" y2="80" stroke="rgba(255,255,255,0.05)" stroke-width="1"/>
  <line x1="310" y1="120" x2="340" y2="75" stroke="rgba(255,255,255,0.05)" stroke-width="1"/>
  <text x="310" y="220" text-anchor="middle" dominant-baseline="central" font-family="serif" font-size="24" fill="rgba(255,255,255,0.6)" font-weight="600">枯枝之美</text>
</svg>
